#!OML:ASF E:\Mandelcareful walks\Project 1\Capture day 1\Session 1\Subject1.ASF
:FULLY-SPECIFIED
:DEGREES
428
root -25.3492 16.0224 -4.91602 182.541 153.009 -183.09
lowerback 8.77105 2.81415 0.0951585
upperback 4.27977 3.77242 -0.142645
thorax -0.462551 1.90208 -0.537875
lowerneck -17.9662 14.1853 8.64768
upperneck 26.8391 23.7246 -16.0979
head 15.7281 9.26726 -3.05201
rclavicle -3.33958e-014 6.16232e-015
rhumerus -34.8577 13.8176 -75.0123
rradius 46.2865
rwrist -4.00107
rhand -10.322 -16.8546
rfingers 7.12502
rthumb 15.6736 -46.2398
lclavicle -3.33958e-014 6.16232e-015
lhumerus -38.5118 0.0976927 82.4994
lradius 42.6253
lwrist 21.2474
lhand -32.8517 -5.70081
lfingers 7.12502
lthumb -6.07103 24.1922
rfemur -14.4866 -16.6536 14.496
rtibia 37.5752
rfoot -18.1219 -13.5659
rtoes -11.3617
lfemur -26.3077 -1.44215 -21.5679
ltibia 67.0698
lfoot -22.4165 6.16209
ltoes -8.55429
429
root -25.4692 16.1193 -4.77351 183.029 151.01 -183.546
lowerback 7.82997 2.87607 0.53831
upperback 3.94752 3.88614 0.0721871
thorax -0.273622 1.96153 -0.532304
lowerneck -18.3156 14.025 8.75678
upperneck 27.2138 23.5399 -16.0409
head 15.9593 9.16884 -3.07705
rclavicle 1.36366e-013 -3.55825e-014
rhumerus -34.0021 12.5394 -74.0305
rradius 45.834
rwrist -5.79274
rhand -10.8149 -17.3082
rfingers 7.12502
rthumb 15.1988 -46.73
lclavicle 1.36366e-013 -3.55825e-014
lhumerus -38.9526 1.73451 80.5726
lradius 39.1341
lwrist 20.9708
lhand -31.9289 -5.88721
lfingers 7.12502
lthumb -5.18006 24.0295
rfemur -14.0637 -16.7313 15.6864
rtibia 36.7449
rfoot -18.3981 -14.467
rtoes -9.60044
lfemur -26.6163 -2.08448 -21.9014
ltibia 64.5575
lfoot -23.3564 6.21054
ltoes -8.18997
430
root -25.5749 16.2207 -4.63578 183.693 148.885 -183.569
lowerback 6.86916 2.92065 0.572117
upperback 3.66187 3.94283 0.198813
thorax -0.0446857 1.98825 -0.380892
lowerneck -18.6377 13.7213 7.96219
upperneck 27.3199 23.0991 -15.3892
head 15.7599 8.96819 -2.79354
rclavicle -1.26974e-013 1.5704e-014
rhumerus -33.4262 11.3427 -73.1822
rradius 45.8426
rwrist -7.93328
rhand -11.5684 -17.7548
rfingers 7.12502
rthumb 14.4729 -47.23
lclavicle -1.26974e-013 1.5704e-014
lhumerus -39.1892 3.01582 78.6691
lradius 35.5452
lwrist 20.5134
lhand -30.3836 -6.04221
lfingers 7.12502
lthumb -3.68786 23.9056
rfemur -13.6342 -17.1011 16.3465
rtibia 35.8779
rfoot -17.9606 -15.0675
rtoes -9.04184
lfemur -26.6947 -3.24144 -22.6621
ltibia 61.7361
lfoot -24.1346 6.77136
ltoes -7.6936
431
root -25.658 16.3126 -4.49921 183.759 146.852 -183.973
lowerback 6.18334 2.94463 1.14473
upperback 3.4798 4.00108 0.296251
thorax 0.179957 2.02427 -0.569197
lowerneck -19.1707 13.5195 8.06239
upperneck 27.6873 22.8072 -15.2613
head 15.9981 8.82012 -2.80364
rclavicle 7.53394e-014 -7.05686e-015
rhumerus -33.2064 10.3346 -72.6569
rradius 46.333
rwrist -10.0408
rhand -12.4827 -18.1409
rfingers 7.12502
rthumb 13.5918 -47.6772
lclavicle 7.53394e-014 -7.05686e-015
lhumerus -39.4176 4.00855 76.6141
lradius 32.0976
lwrist 19.6776
lhand -26.6394 -4.04558
lfingers 7.12502
lthumb -0.0718179 25.9341
rfemur -12.8521 -17.7391 17.1253
rtibia 35.173
rfoot -16.2244 -15.4305
rtoes -13.0507
lfemur -26.0974 -4.35885 -23.0513
ltibia 58.6885
lfoot -24.9052 7.8347
ltoes -7.91055
432
root -25.7306 16.3977 -4.35321 183.781 145.175 -184.55
lowerback 5.21549 3.09069 1.57189
upperback 3.34012 4.20094 0.517563
thorax 0.590619 2.12965 -0.536803
lowerneck -19.7424 13.2974 8.10079
upperneck 28.0895 22.5655 -15.2583
head 16.2907 8.66933 -2.84348
rclavicle 1.01654e-013 -2.77305e-014
rhumerus -33.1146 9.56165 -72.117
rradius 47.1608
rwrist -11.7384
rhand -13.2113 -18.8147
rfingers 7.12502
rthumb 12.8895 -48.3967
lclavicle 1.01654e-013 -2.77305e-014
lhumerus -39.5758 5.32806 74.3875
lradius 28.8629
lwrist 17.7241
lhand -24.8453 -4.44429
lfingers 7.12502
lthumb 1.66098 25.529
rfemur -12.4302 -18.1321 18.0189
rtibia 34.8775
rfoot -14.5131 -15.4534
rtoes -16.4681
lfemur -25.5131 -4.411 -23.1741
ltibia 55.5819
lfoot -25.852 8.54326
ltoes -11.6426
433
root -25.82 16.485 -4.19608 184.647 143.522 -184.143
lowerback 3.99431 3.26979 0.862156
upperback 3.14148 4.39563 0.441883
thorax 1.02098 2.2162 -0.159526
lowerneck -20.2772 13.0535 7.89104
upperneck 28.3941 22.1745 -14.8632
head 16.3901 8.48767 -2.72537
rclavicle -2.23633e-016 2.88238e-015
rhumerus -33.0354 8.61775 -71.8743
rradius 47.9998
rwrist -12.8369
rhand -13.4197 -18.8215
rfingers 7.12502
rthumb 12.6886 -48.416
lclavicle -2.23633e-016 2.88238e-015
lhumerus -39.5997 6.89401 71.6108
lradius 25.906
lwrist 14.996
lhand -22.8302 -5.6336
lfingers 7.12502
lthumb 3.60707 24.3156
rfemur -12.5014 -18.3937 18.2071
rtibia 34.7874
rfoot -14.6294 -15.4859
rtoes -13.8938
lfemur -25.0993 -4.89114 -23.9929
ltibia 52.3345
lfoot -27.0063 8.8908
ltoes -14.1307
434
root -25.8928 16.5213 -4.0415 185.529 142.08 -183.531
lowerback 2.23636 3.49858 0.266034
upperback 3.39593 4.68131 0.178231
thorax 2.24102 2.35112 0.0241079
lowerneck -21.0593 12.8067 7.79617
upperneck 28.4486 21.7264 -14.6626
head 16.4718 8.26524 -2.70032
rclavicle -8.17502e-015 -6.36111e-015
rhumerus -32.3003 7.32997 -71.7648
rradius 48.5485
rwrist -13.5218
rhand -13.2315 -18.0426
rfingers 7.12502
rthumb 12.8701 -47.6258
lclavicle -8.17502e-015 -6.36111e-015
lhumerus -39.1024 7.61182 69.6364
lradius 22.4378
lwrist 9.22661
lhand -25.4629 -8.6324
lfingers 7.12502
lthumb 1.06451 21.3447
rfemur -12.4855 -19.0091 18.031
rtibia 34.7925
rfoot -14.7164 -15.1002
rtoes -11.8715
lfemur -24.6328 -2.77891 -24.9965
ltibia 49.1755
lfoot -26.7487 7.60368
ltoes -13.454
435
root -25.9577 16.5664 -3.89877 185.475 140.811 -183.969
lowerback 1.60994 3.66591 0.147096
upperback 3.17932 4.89812 0.33733
thorax 2.34514 2.45274 0.286496
lowerneck -21.3362 12.6122 7.79741
upperneck 28.7314 21.4625 -14.5457
head 16.6121 8.14443 -2.71087
rclavicle 1.49486e-013 -2.32081e-014
rhumerus -32.1923 6.93869 -71.7696
rradius 49.0981
rwrist -14.1283
rhand -13.0692 -17.9462
rfingers 7.12502
rthumb 13.0264 -47.5195
lclavicle 1.49486e-013 -2.32081e-014
lhumerus -39.4994 10.3257 66.1801
lradius 21.3044
lwrist 7.06266
lhand -21.019 -4.99249
lfingers 7.12502
lthumb 5.35599 24.9198
rfemur -12.4094 -19.3049 18.7289
rtibia 35.2125
rfoot -14.2138 -14.8636
rtoes -13.2094
lfemur -23.8945 -1.85443 -25.103
ltibia 46.3376
lfoot -26.4199 8.92222
ltoes -12.9647
436
root -26.0066 16.6313 -3.75669 185.061 139.583 -184.729
lowerback 1.0145 3.79328 0.226615
upperback 3.00929 5.06095 0.572977
thorax 2.4888 2.53141 0.519783
lowerneck -21.5136 12.4498 7.71985
upperneck 29.0049 21.2381 -14.3363
head 16.7032 8.05079 -2.66567
rclavicle 1.165e-013 -1.0138e-014
rhumerus -32.1597 7.01186 -71.915
rradius 49.7126
rwrist -14.67
rhand -12.9904 -18.0763
rfingers 7.12502
rthumb 13.1025 -47.6447
lclavicle 1.165e-013 -1.0138e-014
lhumerus -40.3272 11.6761 63.6608
lradius 20.091
lwrist 2.9782
lhand -21.1804 -4.66924
lfingers 7.12502
lthumb 5.20014 25.247
rfemur -12.1741 -19.6304 19.6234
rtibia 35.6796
rfoot -13.7931 -14.5942
rtoes -14.6718
lfemur -22.7291 -3.66094 -24.5511
ltibia 44.0469
lfoot -28.8712 10.8508
ltoes -5.06974
437
root -26.0625 16.574 -3.62468 184.638 138.269 -185.124
lowerback 0.278095 3.87063 0.0849586
upperback 3.10282 5.16073 0.71269
thorax 2.97292 2.57361 0.801725
lowerneck -21.7182 12.2904 7.56058
upperneck 29.2398 20.9903 -14.0317
head 16.7494 7.9506 -2.57143
rclavicle -9.49694e-014 -1.25731e-014
rhumerus -31.8054 7.1968 -72.1349
rradius 50.1993
rwrist -15.1923
rhand -13.0022 -18.0956
rfingers 7.12502
rthumb 13.091 -47.6647
lclavicle -9.49694e-014 -1.25731e-014
lhumerus -40.7596 13.7651 60.7632
lradius 18.701
lwrist -1.3018
lhand -21.3202 -5.94304
lfingers 7.12502
lthumb 5.06519 23.9764
rfemur -11.7758 -20.2422 20.0341
rtibia 36.2983
rfoot -13.7738 -14.1374
rtoes -16.6245
lfemur -22.0838 4.06971 -24.6326
ltibia 42.3718
lfoot -27.9987 7.67594
ltoes -6.58139
